<mxfile host="app.diagrams.net" agent="Mozilla/5.0 (Macintosh; Intel Mac OS X 10_15_7) AppleWebKit/537.36 (KHTML, like Gecko) Chrome/140.0.0.0 Safari/537.36" version="28.2.4">
  <diagram name="Page-1" id="8m1_DOTnaVY4vGbasZpQ">
    <mxGraphModel dx="785" dy="544" grid="1" gridSize="10" guides="1" tooltips="1" connect="1" arrows="1" fold="1" page="1" pageScale="1" pageWidth="850" pageHeight="1100" math="0" shadow="0">
      <root>
        <mxCell id="0" />
        <mxCell id="1" parent="0" />
        <mxCell id="nIOoOxmTbBKWa2zRMgvy-1" value="Amplify Developer&#xa;Success Stories" style="whiteSpace=wrap;strokeWidth=2;sketch=1;curveFitting=1;jiggle=2;" vertex="1" parent="1">
          <mxGeometry x="54" y="20" width="192" height="78" as="geometry" />
        </mxCell>
        <mxCell id="nIOoOxmTbBKWa2zRMgvy-2" value="&#39;Skills Over Pedigree&#39; Mission" style="whiteSpace=wrap;strokeWidth=2;sketch=1;curveFitting=1;jiggle=2;" vertex="1" parent="1">
          <mxGeometry x="20" y="171" width="260" height="78" as="geometry" />
        </mxCell>
        <mxCell id="nIOoOxmTbBKWa2zRMgvy-3" value="High-Quality, Mission-Aligned Leads" style="whiteSpace=wrap;strokeWidth=2;sketch=1;curveFitting=1;jiggle=2;" vertex="1" parent="1">
          <mxGeometry x="20" y="321" width="260" height="78" as="geometry" />
        </mxCell>
        <mxCell id="nIOoOxmTbBKWa2zRMgvy-4" value="Solidifies" style="curved=1;startArrow=none;endArrow=block;exitX=0.5;exitY=1;entryX=0.5;entryY=-0.01;rounded=0;sketch=1;curveFitting=1;jiggle=2;" edge="1" parent="1" source="nIOoOxmTbBKWa2zRMgvy-1" target="nIOoOxmTbBKWa2zRMgvy-2">
          <mxGeometry relative="1" as="geometry">
            <Array as="points" />
          </mxGeometry>
        </mxCell>
        <mxCell id="nIOoOxmTbBKWa2zRMgvy-5" value="Generates" style="curved=1;startArrow=none;endArrow=block;exitX=0.5;exitY=0.99;entryX=0.5;entryY=0;rounded=0;sketch=1;curveFitting=1;jiggle=2;" edge="1" parent="1" source="nIOoOxmTbBKWa2zRMgvy-2" target="nIOoOxmTbBKWa2zRMgvy-3">
          <mxGeometry relative="1" as="geometry">
            <Array as="points" />
          </mxGeometry>
        </mxCell>
      </root>
    </mxGraphModel>
  </diagram>
</mxfile>
